<mxfile host="65bd71144e">
    <diagram id="jU3UhG7xcqemGHxzKTIg" name="Page-1">
        <mxGraphModel dx="1137" dy="758" grid="1" gridSize="10" guides="1" tooltips="1" connect="1" arrows="1" fold="1" page="1" pageScale="1" pageWidth="850" pageHeight="1100" math="0" shadow="0">
            <root>
                <mxCell id="0"/>
                <mxCell id="1" parent="0"/>
                <mxCell id="58" value="" style="rounded=0;whiteSpace=wrap;html=1;labelBackgroundColor=none;labelBorderColor=default;strokeColor=default;fontFamily=Verdana;fontColor=#141414;fillColor=#ffffff;gradientColor=none;" vertex="1" parent="1">
                    <mxGeometry x="44" y="30" width="780" height="420" as="geometry"/>
                </mxCell>
                <mxCell id="63" value="" style="rounded=0;whiteSpace=wrap;html=1;labelBackgroundColor=none;labelBorderColor=default;strokeColor=#0a0a0a;fontFamily=Verdana;fontColor=#141414;fillColor=#ffffff;gradientColor=none;dashed=1;dashPattern=12 12;" vertex="1" parent="1">
                    <mxGeometry x="280" y="179.91" width="170" height="180" as="geometry"/>
                </mxCell>
                <mxCell id="61" style="edgeStyle=none;rounded=1;html=1;entryX=0.5;entryY=0;entryDx=0;entryDy=0;strokeColor=#050505;fontFamily=Verdana;fontColor=#141414;endArrow=classic;endFill=1;" edge="1" parent="1" source="59" target="60">
                    <mxGeometry relative="1" as="geometry"/>
                </mxCell>
                <mxCell id="75" style="edgeStyle=none;rounded=1;html=1;strokeColor=#050505;fontFamily=Verdana;fontColor=#f90101;startArrow=none;startFill=0;endArrow=classic;endFill=1;" edge="1" parent="1" source="59" target="66">
                    <mxGeometry relative="1" as="geometry"/>
                </mxCell>
                <mxCell id="84" style="edgeStyle=none;rounded=1;html=1;strokeColor=#050505;fontFamily=Verdana;fontSize=14;fontColor=#f90101;startArrow=none;startFill=0;endArrow=classic;endFill=1;" edge="1" parent="1" source="59" target="64">
                    <mxGeometry relative="1" as="geometry">
                        <Array as="points">
                            <mxPoint x="360" y="160"/>
                            <mxPoint x="330" y="160"/>
                            <mxPoint x="290" y="160"/>
                            <mxPoint x="210" y="160"/>
                        </Array>
                    </mxGeometry>
                </mxCell>
                <mxCell id="59" value="Copy files" style="rounded=1;whiteSpace=wrap;html=1;labelBackgroundColor=none;labelBorderColor=default;strokeColor=#0a0a0a;fontFamily=Verdana;fontColor=#141414;fillColor=#ffffff;gradientColor=none;" vertex="1" parent="1">
                    <mxGeometry x="305" y="203.91" width="120" height="30" as="geometry"/>
                </mxCell>
                <mxCell id="60" value="Delete files" style="rounded=1;whiteSpace=wrap;html=1;labelBackgroundColor=none;labelBorderColor=default;strokeColor=#0a0a0a;fontFamily=Verdana;fontColor=#141414;fillColor=#ffffff;gradientColor=none;" vertex="1" parent="1">
                    <mxGeometry x="305" y="297.90999999999997" width="120" height="30" as="geometry"/>
                </mxCell>
                <mxCell id="62" value="Azure Data Factory" style="aspect=fixed;html=1;points=[];align=center;image;fontSize=12;image=img/lib/azure2/databases/Data_Factory.svg;rounded=0;labelBackgroundColor=none;labelBorderColor=default;strokeColor=#0a0a0a;fontFamily=Verdana;fontColor=#141414;fillColor=#ffffff;gradientColor=none;" vertex="1" parent="1">
                    <mxGeometry x="430" y="341.91" width="18" height="18" as="geometry"/>
                </mxCell>
                <mxCell id="74" style="edgeStyle=none;rounded=1;html=1;entryX=0;entryY=0.5;entryDx=0;entryDy=0;strokeColor=#050505;fontFamily=Verdana;fontColor=#f90101;startArrow=none;startFill=0;endArrow=classic;endFill=1;" edge="1" parent="1" source="64" target="59">
                    <mxGeometry relative="1" as="geometry"/>
                </mxCell>
                <mxCell id="64" value="Azure Storage Account" style="aspect=fixed;html=1;points=[];align=center;image;fontSize=12;image=img/lib/azure2/storage/Storage_Accounts.svg;rounded=0;dashed=1;dashPattern=12 12;labelBackgroundColor=none;labelBorderColor=default;strokeColor=#0a0a0a;fontFamily=Verdana;fontColor=#141414;fillColor=#ffffff;gradientColor=none;" vertex="1" parent="1">
                    <mxGeometry x="154" y="194.91" width="60" height="48" as="geometry"/>
                </mxCell>
                <mxCell id="65" value="VNET" style="aspect=fixed;html=1;points=[];align=center;image;fontSize=12;image=img/lib/azure2/networking/Virtual_Networks.svg;rounded=0;dashed=1;dashPattern=12 12;labelBackgroundColor=none;labelBorderColor=default;strokeColor=#0a0a0a;fontFamily=Verdana;fontColor=#141414;fillColor=#ffffff;gradientColor=none;" vertex="1" parent="1">
                    <mxGeometry x="610" y="390" width="30" height="17.91" as="geometry"/>
                </mxCell>
                <mxCell id="72" style="edgeStyle=none;rounded=1;html=1;strokeColor=#050505;fontFamily=Verdana;fontColor=#f90101;startArrow=none;startFill=0;endArrow=classic;endFill=1;" edge="1" parent="1" source="66" target="67">
                    <mxGeometry relative="1" as="geometry"/>
                </mxCell>
                <mxCell id="66" value="Private endpoint" style="aspect=fixed;html=1;points=[];align=center;image;fontSize=12;image=img/lib/azure2/networking/Private_Endpoint.svg;rounded=0;dashed=1;dashPattern=12 12;labelBackgroundColor=none;labelBorderColor=default;strokeColor=#0a0a0a;fontFamily=Verdana;fontColor=#141414;fillColor=#ffffff;gradientColor=none;" vertex="1" parent="1">
                    <mxGeometry x="500" y="190.91" width="60" height="55" as="geometry"/>
                </mxCell>
                <mxCell id="67" value="MongoDB Atlas" style="dashed=0;outlineConnect=0;html=1;align=center;labelPosition=center;verticalLabelPosition=bottom;verticalAlign=top;shape=mxgraph.weblogos.mongodb;rounded=0;dashPattern=12 12;labelBackgroundColor=none;labelBorderColor=default;strokeColor=#0a0a0a;fontFamily=Verdana;fontColor=#141414;fillColor=#ffffff;gradientColor=none;" vertex="1" parent="1">
                    <mxGeometry x="730" y="175.31" width="41.2" height="86.2" as="geometry"/>
                </mxCell>
                <mxCell id="69" style="edgeStyle=none;rounded=1;html=1;strokeColor=#050505;fontFamily=Verdana;fontColor=#141414;startArrow=none;startFill=0;endArrow=classic;endFill=1;" edge="1" parent="1" source="70" target="67">
                    <mxGeometry relative="1" as="geometry"/>
                </mxCell>
                <mxCell id="68" value="Internet" style="aspect=fixed;perimeter=ellipsePerimeter;html=1;align=center;shadow=0;dashed=0;spacingTop=3;image;image=img/lib/active_directory/internet_cloud.svg;rounded=0;dashPattern=12 12;labelBackgroundColor=none;labelBorderColor=default;strokeColor=#0a0a0a;fontFamily=Verdana;fontColor=#141414;fillColor=#ffffff;gradientColor=none;" vertex="1" parent="1">
                    <mxGeometry x="723.58" y="40" width="47.62" height="30" as="geometry"/>
                </mxCell>
                <mxCell id="71" value="" style="edgeStyle=none;rounded=1;html=1;strokeColor=#050505;fontFamily=Verdana;fontColor=#141414;startArrow=none;startFill=0;endArrow=none;endFill=1;" edge="1" parent="1" source="68" target="70">
                    <mxGeometry relative="1" as="geometry">
                        <mxPoint x="750.5999999999999" y="81.5" as="sourcePoint"/>
                        <mxPoint x="750.5999999999999" y="150" as="targetPoint"/>
                    </mxGeometry>
                </mxCell>
                <mxCell id="70" value="" style="ellipse;whiteSpace=wrap;html=1;aspect=fixed;rounded=0;labelBackgroundColor=none;labelBorderColor=default;strokeColor=#0a0a0a;fontFamily=Verdana;fontColor=#f90101;fillColor=#f70202;gradientColor=none;" vertex="1" parent="1">
                    <mxGeometry x="735.6" y="110" width="30" height="30" as="geometry"/>
                </mxCell>
                <mxCell id="73" value="" style="rounded=0;whiteSpace=wrap;html=1;labelBackgroundColor=none;labelBorderColor=default;strokeColor=#0a0a0a;fontFamily=Verdana;fontColor=#f90101;fillColor=none;gradientColor=none;" vertex="1" parent="1">
                    <mxGeometry x="110" y="150" width="530" height="264.91" as="geometry"/>
                </mxCell>
                <mxCell id="76" value="1" style="ellipse;whiteSpace=wrap;html=1;aspect=fixed;rounded=0;labelBackgroundColor=none;labelBorderColor=default;strokeColor=#0a0a0a;fontFamily=Verdana;fontColor=#f90101;fillColor=none;gradientColor=none;fontSize=14;fontStyle=1" vertex="1" parent="1">
                    <mxGeometry x="220" y="179.91" width="30" height="30" as="geometry"/>
                </mxCell>
                <mxCell id="77" value="2" style="ellipse;whiteSpace=wrap;html=1;aspect=fixed;rounded=0;labelBackgroundColor=none;labelBorderColor=default;strokeColor=#0a0a0a;fontFamily=Verdana;fontColor=#f90101;fillColor=none;gradientColor=none;fontSize=14;fontStyle=1" vertex="1" parent="1">
                    <mxGeometry x="460" y="179.91" width="30" height="30" as="geometry"/>
                </mxCell>
                <mxCell id="78" value="4" style="ellipse;whiteSpace=wrap;html=1;aspect=fixed;rounded=0;labelBackgroundColor=none;labelBorderColor=default;strokeColor=#0a0a0a;fontFamily=Verdana;fontColor=#f90101;fillColor=none;gradientColor=none;fontSize=14;fontStyle=1" vertex="1" parent="1">
                    <mxGeometry x="370" y="245.91" width="30" height="30" as="geometry"/>
                </mxCell>
                <mxCell id="81" style="edgeStyle=none;rounded=1;html=1;strokeColor=#050505;fontFamily=Verdana;fontSize=14;fontColor=#f90101;startArrow=none;startFill=0;endArrow=classic;endFill=1;" edge="1" parent="1" source="82" target="64">
                    <mxGeometry relative="1" as="geometry"/>
                </mxCell>
                <mxCell id="79" value="Internet" style="aspect=fixed;perimeter=ellipsePerimeter;html=1;align=center;shadow=0;dashed=0;spacingTop=3;image;image=img/lib/active_directory/internet_cloud.svg;rounded=0;dashPattern=12 12;labelBackgroundColor=none;labelBorderColor=default;strokeColor=#0a0a0a;fontFamily=Verdana;fontColor=#141414;fillColor=#ffffff;gradientColor=none;" vertex="1" parent="1">
                    <mxGeometry x="160.19" y="40" width="47.62" height="30" as="geometry"/>
                </mxCell>
                <mxCell id="83" value="" style="edgeStyle=none;rounded=1;html=1;strokeColor=#050505;fontFamily=Verdana;fontSize=14;fontColor=#f90101;startArrow=none;startFill=0;endArrow=none;endFill=1;" edge="1" parent="1" source="79" target="82">
                    <mxGeometry relative="1" as="geometry">
                        <mxPoint x="184" y="70" as="sourcePoint"/>
                        <mxPoint x="184" y="194.90999999999997" as="targetPoint"/>
                    </mxGeometry>
                </mxCell>
                <mxCell id="82" value="" style="ellipse;whiteSpace=wrap;html=1;aspect=fixed;rounded=0;labelBackgroundColor=none;labelBorderColor=default;strokeColor=#0a0a0a;fontFamily=Verdana;fontColor=#f90101;fillColor=#f70202;gradientColor=none;" vertex="1" parent="1">
                    <mxGeometry x="169" y="107" width="30" height="30" as="geometry"/>
                </mxCell>
                <mxCell id="85" value="3" style="ellipse;whiteSpace=wrap;html=1;aspect=fixed;rounded=0;labelBackgroundColor=none;labelBorderColor=default;strokeColor=#0a0a0a;fontFamily=Verdana;fontColor=#f90101;fillColor=none;gradientColor=none;fontSize=14;fontStyle=1" vertex="1" parent="1">
                    <mxGeometry x="260" y="120" width="30" height="30" as="geometry"/>
                </mxCell>
            </root>
        </mxGraphModel>
    </diagram>
</mxfile>